<svg xmlns="http://www.w3.org/2000/svg" version="1.1" xmlns:xlink="http://www.w3.org/1999/xlink" width="1000" height="1000"><style>
    #light-icon {
      display: inline;
    }
    #dark-icon {
      display: none;
    }

    @media (prefers-color-scheme: dark) {
      #light-icon {
        display: none;
      }
      #dark-icon {
        display: inline;
      }
    }
  </style><g id="light-icon"><svg xmlns="http://www.w3.org/2000/svg" version="1.1" xmlns:xlink="http://www.w3.org/1999/xlink" width="1000" height="1000"><g><g transform="matrix(0.5208333333333334,0,0,0.5208333333333334,-5.684341886080802e-14,-5.684341886080802e-14)"><svg xmlns="http://www.w3.org/2000/svg" width="1920" height="1920" viewBox="0 0 1920 1920" fill="none"><g clip-path="url(#clip0_346_16)">
<path d="M1007.81 1009C1245.71 1020.61 1471.51 1120.23 1640.72 1289.44C1693.52 1342.24 1739.53 1400.54 1778.22 1463C1617.11 1725.16 1333.83 1904 1007.81 1920V1009Z" fill="black"></path>
<path fill-rule="evenodd" clip-rule="evenodd" d="M913.987 1918.92C676.076 1907.31 450.275 1807.69 281.059 1638.47C150.612 1508.02 61.5257 1343.95 22.2313 1166.62C7.67418 1100.08 5.47743e-05 1030.96 0 960.044C0 444.668 405.161 24.0365 913.987 -0.00292969V1918.92ZM601.105 473.153C513.184 473.153 441.908 544.429 441.908 632.35C441.909 720.271 513.184 791.545 601.105 791.545C689.026 791.544 760.299 720.271 760.3 632.35C760.3 544.429 689.026 473.153 601.105 473.153Z" fill="black"></path>
<path d="M1007.81 0.0820906C1515.79 25.0244 1920 445.274 1920 960.044C1920 1106.38 1887.33 1245.07 1828.91 1369.21C1793.02 1317.3 1752.31 1268.36 1707.06 1223.11C1520.25 1036.3 1270.61 926.766 1007.81 915.084V0.0820906Z" fill="black"></path>
</g><defs>
<clipPath id="clip0_346_16">
<rect width="1920" height="1920" fill="white"></rect>
</clipPath>
</defs></svg></g></g></svg></g><g id="dark-icon"><svg xmlns="http://www.w3.org/2000/svg" version="1.1" xmlns:xlink="http://www.w3.org/1999/xlink" width="1000" height="1000"><g><g transform="matrix(0.5208333333333334,0,0,0.5208333333333334,-5.684341886080802e-14,-5.684341886080802e-14)"><svg xmlns="http://www.w3.org/2000/svg" width="1920" height="1920" viewBox="0 0 1920 1920" fill="none"><g clip-path="url(#clip0_349_19)">
<path d="M1007.81 1009C1245.71 1020.61 1471.51 1120.23 1640.72 1289.44C1693.52 1342.24 1739.53 1400.54 1778.22 1463C1617.11 1725.16 1333.83 1904 1007.81 1920V1009Z" fill="white"></path>
<path fill-rule="evenodd" clip-rule="evenodd" d="M913.987 1918.92C676.076 1907.31 450.275 1807.69 281.059 1638.47C150.612 1508.02 61.5257 1343.95 22.2313 1166.62C7.67418 1100.08 5.47743e-05 1030.96 0 960.044C0 444.668 405.161 24.0365 913.987 -0.00292969V1918.92ZM601.105 473.153C513.184 473.153 441.908 544.429 441.908 632.35C441.909 720.271 513.184 791.545 601.105 791.545C689.026 791.544 760.299 720.271 760.3 632.35C760.3 544.429 689.026 473.153 601.105 473.153Z" fill="white"></path>
<path d="M1007.81 0.0820906C1515.79 25.0244 1920 445.274 1920 960.044C1920 1106.38 1887.33 1245.07 1828.91 1369.21C1793.02 1317.3 1752.31 1268.36 1707.06 1223.11C1520.25 1036.3 1270.61 926.766 1007.81 915.084V0.0820906Z" fill="white"></path>
</g><defs>
<clipPath id="clip0_349_19">
<rect width="1920" height="1920" fill="white"></rect>
</clipPath>
</defs></svg></g></g></svg></g></svg>