<svg xmlns="http://www.w3.org/2000/svg" width="240" height="56" viewBox="0 0 240 56" fill="none">
  <path d="M65.8172 55.6497C65.9307 55.8426 65.8401 56 65.6165 56H41.9833C41.7589 56 41.4828 55.8418 41.3693 55.6497L33.1398 41.6713C33.0263 41.4784 32.8409 41.4784 32.7265 41.6713L24.497 55.6497C24.3836 55.8426 24.1075 56 23.883 56H0.24985C0.0254177 56 -0.0643549 55.8418 0.0491318 55.6497L2.11391 52.142C2.2274 51.9491 2.50349 51.7917 2.72793 51.7917H21.4719C21.6963 51.7917 21.9724 51.6335 22.0859 51.4415L32.7274 33.3665C32.8409 33.1736 33.0263 33.1736 33.1407 33.3665L43.7822 51.4415C43.8956 51.6344 44.1717 51.7917 44.3962 51.7917H63.1401C63.3645 51.7917 63.6406 51.9499 63.7541 52.142L65.8172 55.6497Z" fill="#000178"/>
  <path d="M33.1384 49.9761C33.025 49.7832 32.8395 49.7832 32.7251 49.9761L29.3849 55.6497C29.2714 55.8426 29.362 56 29.5856 56H36.2771C36.5015 56 36.5913 55.8418 36.4778 55.6497L33.1384 49.9761Z" fill="#000178"/>
  <path d="M60.8636 47.2324C60.9771 47.4253 60.8865 47.5827 60.6629 47.5827H46.8082C46.5838 47.5827 46.3077 47.4244 46.1942 47.2324L33.1415 25.0608C33.0281 24.8679 32.8426 24.8679 32.7282 25.0608L19.6747 47.2324C19.5613 47.4253 19.2852 47.5827 19.0607 47.5827H5.20688C4.98245 47.5827 4.89268 47.4244 5.00616 47.2324L7.07094 43.7247C7.18443 43.5318 7.46052 43.3744 7.68496 43.3744H16.6496C16.874 43.3744 17.1501 43.2162 17.2636 43.0241L32.7291 16.756C32.8426 16.5631 33.0281 16.5631 33.1424 16.756L48.6079 43.0241C48.7214 43.217 48.9975 43.3744 49.2219 43.3744H58.1865C58.411 43.3744 58.6871 43.5326 58.8005 43.7247L60.8636 47.2324ZM9.96147 38.8151C9.84798 39.0079 9.9386 39.1653 10.1622 39.1653H14.2367C14.4611 39.1653 14.7372 39.0071 14.8507 38.8151L32.7282 8.45034C32.8417 8.25744 33.0272 8.25744 33.1415 8.45034L51.0191 38.8151C51.1326 39.0079 51.4087 39.1653 51.6331 39.1653H55.7076C55.932 39.1653 56.0218 39.0071 55.9083 38.8151L33.1415 0.144674C33.0281 -0.0482248 32.8426 -0.0482248 32.7282 0.144674L9.96147 38.8151Z" fill="url(#paint0_linear_3289_1526)"/>
  <path d="M88.3375 8.43774H93.6028L103.504 34.37H97.7188L95.6794 28.7023H86.2973L84.2579 34.37H78.4727L88.3375 8.43774ZM87.9666 24.0338H94.011L90.9706 15.6241L87.9666 24.0338Z" fill="black"/>
  <path d="M113.367 33.1474C111.388 32.1347 109.819 30.6279 108.657 28.6278C107.495 26.6269 106.914 24.2191 106.914 21.4034C106.914 18.5878 107.501 16.1799 108.676 14.179C109.849 12.1789 111.432 10.673 113.423 9.6594C115.412 8.64668 117.595 8.13989 119.968 8.13989C122.118 8.13989 124.059 8.52315 125.789 9.28883C127.52 10.0545 128.929 11.1408 130.017 12.5487C131.105 13.9565 131.76 15.586 131.983 17.4388H126.123C125.95 16.0809 125.289 14.9878 124.139 14.1595C122.99 13.3329 121.586 12.9184 119.93 12.9184C118.521 12.9184 117.26 13.2458 116.148 13.8998C115.035 14.5546 114.158 15.5183 113.515 16.7891C112.871 18.0615 112.55 19.5988 112.55 21.4017C112.55 23.2055 112.871 24.7419 113.515 26.0144C114.158 27.2868 115.035 28.2429 116.148 28.885C117.261 29.528 118.521 29.8478 119.93 29.8478C121.586 29.8478 123.002 29.435 124.177 28.6067C125.351 27.7792 126.049 26.6988 126.272 25.3655H131.872C131.698 27.1938 131.087 28.8106 130.036 30.2184C128.985 31.6262 127.588 32.7193 125.845 33.4977C124.102 34.2752 122.142 34.6644 119.968 34.6644C117.545 34.6661 115.344 34.1601 113.367 33.1474Z" fill="black"/>
  <path d="M144.024 13.2161H136.348V8.43677H157.3V13.2161H149.624V34.3699H144.024V13.2161Z" fill="black"/>
  <path d="M163.059 8.43774H168.658V34.37H163.059V8.43774Z" fill="black"/>
  <path d="M184.219 8.43774H189.486L199.387 34.37H193.602L191.562 28.7023H182.18L180.141 34.37H174.355L184.219 8.43774ZM183.849 24.0338H189.893L186.853 15.6241L183.849 24.0338Z" fill="black"/>
  <path d="M205.047 8.43774H210.98L221.401 25.5905V8.43774H226.963V34.37H221.03L210.609 17.218V34.37H205.047V8.43774Z" fill="black"/>
  <path d="M81.9717 50.8323C81.5771 50.4922 81.3798 50.0379 81.3798 49.4719C81.3798 48.8813 81.6033 48.4109 82.0514 48.0624C82.4994 47.7138 83.1007 47.5395 83.857 47.5395H85.262C85.3933 47.5395 85.4915 47.5082 85.5576 47.4473C85.6228 47.3855 85.6558 47.306 85.6558 47.2079C85.6558 46.773 85.5076 46.4261 85.212 46.1672C84.9165 45.9092 84.5091 45.7797 83.9916 45.7797C83.5394 45.7797 83.1532 45.9007 82.8331 46.1427C82.5129 46.3847 82.3402 46.6782 82.3156 47.0234H81.3789C81.4119 46.6292 81.5491 46.2747 81.7922 45.9582C82.0344 45.6427 82.3512 45.3939 82.7416 45.2129C83.1312 45.0327 83.5572 44.9421 84.0171 44.9421C84.8225 44.9421 85.461 45.1511 85.9336 45.5699C86.4062 45.9887 86.6425 46.5471 86.6425 47.2442V51.2452H85.6567V50.1741C85.4924 50.5278 85.2188 50.8103 84.8369 51.0235C84.4549 51.2376 84.0213 51.3442 83.536 51.3442C82.8881 51.3433 82.3664 51.1733 81.9717 50.8323ZM82.7424 50.2232C82.9762 50.4118 83.2912 50.5058 83.6851 50.5058C84.3092 50.5058 84.7945 50.323 85.1392 49.9584C85.4848 49.5929 85.6567 49.0903 85.6567 48.4499V48.29H83.9188C83.4505 48.29 83.0787 48.3949 82.8034 48.6038C82.5282 48.8128 82.391 49.0988 82.391 49.46C82.391 49.7799 82.5078 50.0345 82.7424 50.2232Z" fill="black"/>
  <path d="M92.2398 50.9255C91.7876 50.6463 91.4446 50.2647 91.2108 49.7799C90.9763 49.296 90.8594 48.7494 90.8594 48.142C90.8594 47.5345 90.9763 46.9888 91.2108 46.504C91.4454 46.0201 91.7884 45.6376 92.2398 45.3585C92.6921 45.0801 93.2299 44.9397 93.8549 44.9397C94.2902 44.9397 94.6951 45.0403 95.0694 45.2417C95.4429 45.4431 95.7249 45.7113 95.9138 46.048V42.4895H96.9004V51.2453H95.9138V50.2232C95.7249 50.56 95.4437 50.8307 95.0694 51.0354C94.6951 51.2402 94.2911 51.3434 93.8549 51.3434C93.2307 51.3434 92.6921 51.2038 92.2398 50.9255ZM92.444 49.8231C92.8174 50.2461 93.3171 50.4576 93.9413 50.4576C94.5655 50.4576 95.0652 50.2461 95.4386 49.8231C95.813 49.4 95.9993 48.8399 95.9993 48.1428C95.9993 47.4448 95.8121 46.8847 95.4386 46.4625C95.0643 46.0395 94.5655 45.828 93.9413 45.828C93.3163 45.828 92.8174 46.0395 92.444 46.4625C92.0696 46.8856 91.8833 47.4457 91.8833 48.1428C91.8824 48.8399 92.0696 49.4 92.444 49.8231Z" fill="black"/>
  <path d="M99.6457 42.4902V43.8693H98.5117V42.4902H99.6457ZM98.5854 45.0385H99.5712V51.2452H98.5854V45.0385Z" fill="black"/>
  <path d="M100.555 45.0386H101.578L103.34 50.0133L105.115 45.0386H106.138L103.87 51.2452H102.835L100.555 45.0386Z" fill="black"/>
  <path d="M108.193 42.4902V43.8693H107.059V42.4902H108.193ZM107.132 45.0385H108.118V51.2452H107.132V45.0385Z" fill="black"/>
  <path d="M110.13 50.7834C109.686 50.4094 109.444 49.8984 109.402 49.2503H110.352C110.385 49.6446 110.535 49.9483 110.801 50.1615C111.068 50.3747 111.424 50.4813 111.868 50.4813C112.254 50.4813 112.568 50.3908 112.81 50.2106C113.053 50.0304 113.174 49.8079 113.174 49.5456C113.174 49.2833 113.106 49.082 112.97 48.9424C112.835 48.8028 112.666 48.7021 112.465 48.6403C112.263 48.5786 111.978 48.5193 111.608 48.4618C111.172 48.3967 110.817 48.318 110.541 48.2283C110.266 48.1386 110.032 47.9703 109.839 47.7241C109.645 47.4779 109.549 47.1284 109.549 46.6775C109.549 46.1521 109.752 45.7316 110.159 45.4152C110.565 45.0996 111.097 44.9414 111.755 44.9414C112.437 44.9414 112.992 45.114 113.419 45.4583C113.847 45.8035 114.076 46.2629 114.109 46.8374H113.162C113.12 46.4761 112.957 46.2088 112.669 46.037C112.381 45.8644 112.069 45.779 111.732 45.779C111.371 45.779 111.079 45.8585 110.857 46.0184C110.635 46.1783 110.525 46.3941 110.525 46.6648C110.525 46.8949 110.588 47.0709 110.716 47.1944C110.843 47.318 111.004 47.4034 111.196 47.4533C111.389 47.5024 111.654 47.5515 111.991 47.6014C112.451 47.6674 112.826 47.7469 113.114 47.8408C113.401 47.9356 113.647 48.1141 113.853 48.3764C114.058 48.6395 114.161 49.0211 114.161 49.5219C114.161 50.0718 113.952 50.5135 113.533 50.846C113.114 51.1785 112.559 51.3443 111.869 51.3443C111.153 51.3435 110.574 51.1573 110.13 50.7834Z" fill="black"/>
  <path d="M116.575 42.4902V43.8693H115.441V42.4902H116.575ZM115.515 45.0385H116.501V51.2452H115.515V45.0385Z" fill="black"/>
  <path d="M119.318 50.9314C118.841 50.6565 118.467 50.2766 118.196 49.7927C117.924 49.3087 117.789 48.7579 117.789 48.1429C117.789 47.5269 117.925 46.9778 118.196 46.4931C118.467 46.0091 118.841 45.6292 119.318 45.3543C119.795 45.0793 120.337 44.9414 120.945 44.9414C121.553 44.9414 122.097 45.0793 122.578 45.3543C123.058 45.6292 123.434 46.0091 123.705 46.4931C123.976 46.9778 124.111 47.5278 124.111 48.1429C124.111 48.7588 123.976 49.3087 123.705 49.7927C123.434 50.2766 123.058 50.6565 122.578 50.9314C122.096 51.2064 121.552 51.3443 120.945 51.3443C120.337 51.3435 119.795 51.2064 119.318 50.9314ZM119.071 49.3366C119.252 49.6894 119.505 49.9644 119.829 50.1615C120.154 50.3587 120.525 50.4568 120.945 50.4568C121.364 50.4568 121.737 50.3578 122.066 50.1615C122.395 49.9644 122.65 49.6894 122.83 49.3366C123.01 48.9838 123.101 48.5853 123.101 48.142C123.101 47.6987 123.01 47.301 122.83 46.9474C122.65 46.5946 122.395 46.3196 122.066 46.1225C121.737 45.9254 121.363 45.8272 120.945 45.8272C120.525 45.8272 120.154 45.9262 119.829 46.1225C119.505 46.3196 119.252 46.5946 119.071 46.9474C118.89 47.301 118.8 47.6987 118.8 48.142C118.8 48.5853 118.89 48.9838 119.071 49.3366Z" fill="black"/>
  <path d="M125.398 45.0387H126.384V46.2333C126.549 45.8061 126.809 45.4846 127.167 45.2663C127.524 45.0488 127.949 44.9397 128.443 44.9397C129.141 44.9397 129.702 45.1698 130.125 45.6292C130.549 46.0895 130.76 46.6969 130.76 47.4525V51.2453H129.774V47.6124C129.774 47.0794 129.632 46.6504 129.348 46.3255C129.065 46.0015 128.689 45.839 128.22 45.839C127.686 45.839 127.246 46.0319 126.902 46.4177C126.556 46.8035 126.384 47.2959 126.384 47.895V51.2453H125.398V45.0387Z" fill="black"/>
  <path d="M136.478 50.9314C136.001 50.6565 135.628 50.2766 135.356 49.7927C135.085 49.3087 134.949 48.7579 134.949 48.1429C134.949 47.5269 135.085 46.9778 135.356 46.4931C135.627 46.0091 136.001 45.6292 136.478 45.3543C136.955 45.0793 137.497 44.9414 138.105 44.9414C138.713 44.9414 139.257 45.0793 139.738 45.3543C140.218 45.6292 140.594 46.0091 140.865 46.4931C141.136 46.9778 141.271 47.5278 141.271 48.1429C141.271 48.7588 141.136 49.3087 140.865 49.7927C140.594 50.2766 140.218 50.6565 139.738 50.9314C139.257 51.2064 138.713 51.3443 138.105 51.3443C137.497 51.3435 136.954 51.2064 136.478 50.9314ZM136.231 49.3366C136.412 49.6894 136.665 49.9644 136.989 50.1615C137.314 50.3587 137.686 50.4568 138.105 50.4568C138.524 50.4568 138.898 50.3578 139.226 50.1615C139.555 49.9644 139.81 49.6894 139.99 49.3366C140.17 48.9838 140.261 48.5853 140.261 48.142C140.261 47.6987 140.17 47.301 139.99 46.9474C139.81 46.5946 139.555 46.3196 139.226 46.1225C138.898 45.9254 138.523 45.8272 138.105 45.8272C137.686 45.8272 137.314 45.9262 136.989 46.1225C136.665 46.3196 136.412 46.5946 136.231 46.9474C136.05 47.301 135.96 47.6987 135.96 48.142C135.96 48.5853 136.05 48.9838 136.231 49.3366Z" fill="black"/>
  <path d="M142.954 45.9133H141.66V45.0394H142.954V43.5368C142.954 43.2085 143.047 42.9522 143.232 42.7669C143.417 42.5825 143.673 42.4902 144.003 42.4902H145.864V43.3642H143.941V45.0385H145.864V45.9125H143.941V51.2452H142.955V45.9133H142.954Z" fill="black"/>
  <path d="M156.783 42.6257V51.2453H155.156V47.5387H151.31V51.2453H149.695V42.6257H151.31V46.1225H155.156V42.6257H156.783Z" fill="black"/>
  <path d="M160.238 50.8384C159.589 50.5026 159.071 50.0034 158.685 49.3426C158.299 48.6819 158.105 47.8798 158.105 46.9356C158.105 45.999 158.3 45.1995 158.691 44.5337C159.081 43.8687 159.601 43.3687 160.25 43.0319C160.899 42.6952 161.614 42.5269 162.394 42.5269C163.076 42.5269 163.698 42.6521 164.262 42.9025C164.825 43.1529 165.285 43.5057 165.642 43.9618C166 44.4169 166.216 44.9406 166.289 45.532H164.576C164.518 45.0557 164.285 44.6699 163.873 44.3746C163.462 44.0785 162.965 43.9313 162.382 43.9313C161.872 43.9313 161.42 44.0464 161.026 44.2765C160.631 44.5066 160.321 44.8493 160.095 45.3044C159.869 45.7596 159.756 46.3036 159.756 46.9356C159.756 47.5676 159.869 48.1091 160.095 48.5609C160.321 49.0127 160.631 49.3528 161.026 49.5829C161.42 49.8122 161.872 49.9272 162.382 49.9272C162.974 49.9272 163.477 49.7792 163.892 49.4839C164.307 49.1886 164.55 48.8062 164.625 48.3384H166.252C166.194 48.9298 165.993 49.4526 165.648 49.9086C165.303 50.3638 164.849 50.7175 164.286 50.9679C163.723 51.2183 163.092 51.3435 162.394 51.3435C161.607 51.3435 160.888 51.176 160.238 50.8384Z" fill="black"/>
  <path d="M167.869 50.8756C167.623 50.6294 167.5 50.2723 167.5 49.8045V42.6257H169.115V49.8298H173.158V51.2453H168.943C168.473 51.2453 168.116 51.1218 167.869 50.8756Z" fill="black"/>
  <path d="M175.23 50.9747C174.742 50.7285 174.356 50.3799 174.072 49.9281C173.788 49.4763 173.634 48.9518 173.609 48.3519H175.174C175.215 48.8358 175.392 49.2199 175.705 49.5034C176.017 49.786 176.428 49.9281 176.937 49.9281C177.414 49.9281 177.793 49.8316 178.077 49.6387C178.361 49.4458 178.502 49.165 178.502 48.7952C178.502 48.549 178.424 48.3477 178.267 48.1912C178.112 48.0355 177.912 47.9145 177.669 47.8282C177.427 47.7419 177.096 47.6455 176.677 47.5389C176.085 47.3908 175.602 47.2368 175.229 47.0769C174.854 46.917 174.534 46.664 174.267 46.3197C174.001 45.9745 173.867 45.5117 173.867 44.9288C173.867 44.4609 173.992 44.0438 174.243 43.6783C174.494 43.3128 174.845 43.0303 175.296 42.8289C175.749 42.6275 176.262 42.5269 176.837 42.5269C177.437 42.5269 177.969 42.636 178.433 42.8534C178.898 43.0709 179.263 43.3814 179.53 43.7832C179.797 44.186 179.943 44.6538 179.968 45.1868H178.415C178.373 44.8095 178.213 44.5058 177.934 44.2756C177.654 44.0464 177.288 43.9304 176.837 43.9304C176.409 43.9304 176.073 44.021 175.826 44.2012C175.579 44.3822 175.457 44.6242 175.457 44.9279C175.457 45.1818 175.536 45.3873 175.697 45.543C175.857 45.6987 176.059 45.8205 176.301 45.9068C176.543 45.9931 176.883 46.0853 177.318 46.1835C177.918 46.3231 178.405 46.4694 178.779 46.6209C179.152 46.7732 179.475 47.0211 179.746 47.3663C180.017 47.7114 180.153 48.1793 180.153 48.7699C180.153 49.2952 180.017 49.7513 179.746 50.1362C179.475 50.522 179.097 50.8198 178.612 51.0297C178.127 51.2386 177.569 51.3435 176.936 51.3435C176.288 51.3435 175.719 51.2209 175.23 50.9747Z" fill="black"/>
  <path d="M182.527 50.9313C182.034 50.6563 181.648 50.2748 181.368 49.7858C181.089 49.2976 180.949 48.7493 180.949 48.1419C180.949 47.5344 181.089 46.987 181.368 46.498C181.648 46.0098 182.034 45.6283 182.527 45.3533C183.02 45.0783 183.579 44.9404 184.203 44.9404C184.82 44.9404 185.374 45.0783 185.867 45.3533C186.36 45.6283 186.746 46.0107 187.026 46.498C187.305 46.987 187.445 47.5344 187.445 48.1419C187.445 48.7493 187.305 49.2976 187.026 49.7858C186.746 50.2748 186.36 50.6563 185.867 50.9313C185.374 51.2063 184.82 51.3442 184.203 51.3442C183.579 51.3433 183.02 51.2063 182.527 50.9313ZM182.952 49.5091C183.268 49.8627 183.686 50.0387 184.203 50.0387C184.712 50.0387 185.125 49.8627 185.441 49.5091C185.758 49.1563 185.916 48.7011 185.916 48.1427C185.916 47.5843 185.757 47.1292 185.441 46.7764C185.125 46.4236 184.712 46.2467 184.203 46.2467C183.685 46.2467 183.268 46.421 182.952 46.7704C182.635 47.119 182.478 47.5767 182.478 48.1436C182.478 48.7003 182.636 49.1563 182.952 49.5091Z" fill="black"/>
  <path d="M189.013 46.3069H187.793V45.0386H189.013V43.6596C189.013 43.2738 189.13 42.9641 189.365 42.7298C189.599 42.4963 189.909 42.3787 190.296 42.3787H192.342V43.6596H190.53V45.0386H192.342V46.3069H190.53V51.2453H189.014V46.3069H189.013Z" fill="black"/>
  <path d="M194.307 50.9127C194.085 50.691 193.974 50.3754 193.974 49.9643V46.3068H192.754V45.0386H193.974V43.1663H195.49V45.0386H197.215V46.3068H195.49V49.9643H197.215V51.2452H195.256C194.845 51.2452 194.529 51.1344 194.307 50.9127Z" fill="black"/>
  <path d="M197.727 45.0386H199.243L200.389 49.1884L201.61 45.0386H203.003L204.211 49.1884L205.356 45.0386H206.872L204.888 51.2452H203.545L202.3 47.0708L201.055 51.2452H199.712L197.727 45.0386Z" fill="black"/>
  <path d="M207.816 50.8138C207.434 50.461 207.242 50.0135 207.242 49.472C207.242 48.8815 207.454 48.4094 207.877 48.0566C208.3 47.7038 208.865 47.5269 209.571 47.5269H210.718C210.866 47.5269 210.977 47.488 211.051 47.4102C211.124 47.3323 211.162 47.2317 211.162 47.1081C211.162 46.7959 211.051 46.5464 210.829 46.3568C210.607 46.1682 210.299 46.0734 209.905 46.0734C209.519 46.0734 209.209 46.1758 208.974 46.3814C208.74 46.5861 208.614 46.8366 208.598 47.1327H207.242C207.267 46.7223 207.395 46.3509 207.624 46.0184C207.854 45.6859 208.173 45.4237 208.579 45.2308C208.986 45.0379 209.453 44.9414 209.979 44.9414C210.504 44.9414 210.971 45.0362 211.378 45.2248C211.784 45.4135 212.101 45.6825 212.327 46.0311C212.553 46.3805 212.666 46.7841 212.666 47.2435V51.2453H211.162V50.3214C211.038 50.6336 210.808 50.8815 210.471 51.0668C210.134 51.2512 209.748 51.3443 209.313 51.3443C208.696 51.3435 208.197 51.1675 207.816 50.8138ZM208.974 49.9957C209.15 50.1395 209.383 50.2106 209.67 50.2106C210.139 50.2106 210.504 50.0651 210.767 49.7732C211.03 49.4822 211.162 49.098 211.162 48.6217V48.5227H209.781C209.461 48.5227 209.202 48.6031 209.005 48.763C208.807 48.9229 208.709 49.1429 208.709 49.4221C208.709 49.6607 208.797 49.8519 208.974 49.9957Z" fill="black"/>
  <path d="M214.358 45.3897C214.593 45.1562 214.903 45.0386 215.289 45.0386H217.595V46.3068H215.524V51.2452H214.008V46.3195C214.007 45.9337 214.124 45.624 214.358 45.3897Z" fill="black"/>
  <path d="M218.302 46.5471C218.532 46.0674 218.877 45.679 219.338 45.3838C219.797 45.0876 220.352 44.9404 221.002 44.9404C221.659 44.9404 222.216 45.0817 222.672 45.3651C223.127 45.6477 223.467 46.0174 223.689 46.4735C223.911 46.9286 224.022 47.416 224.022 47.9329C224.022 48.1131 224.013 48.2857 223.997 48.4498H219.412C219.47 48.9507 219.65 49.3483 219.954 49.6445C220.258 49.9397 220.649 50.0878 221.125 50.0878C221.512 50.0878 221.828 50.01 222.075 49.8543C222.321 49.6986 222.486 49.4727 222.568 49.1766H224.046C223.931 49.834 223.607 50.3585 223.072 50.7528C222.538 51.147 221.889 51.3442 221.125 51.3442C220.476 51.3442 219.911 51.1927 219.43 50.889C218.949 50.5853 218.584 50.1868 218.333 49.6944C218.082 49.202 217.957 48.6766 217.957 48.1182C217.957 47.5505 218.071 47.0276 218.302 46.5471ZM222.505 47.4524C222.472 47.042 222.322 46.7095 222.055 46.4549C221.788 46.201 221.437 46.0733 221.002 46.0733C220.123 46.0733 219.604 46.5327 219.448 47.4524H222.505Z" fill="black"/>
  <path d="M234.259 8.85814H233.176V8.40381H235.856V8.85814H234.773V11.8616H234.259V8.85814Z" fill="black"/>
  <path d="M236.501 8.40381H237.133L238.236 11.1602L239.339 8.40381H239.972V11.8625H239.477V9.28878L238.444 11.8625H238.028L236.99 9.28878V11.8625H236.5V8.40381H236.501Z" fill="black"/>
  <defs>
    <linearGradient id="paint0_linear_3289_1526" x1="20.6433" y1="52.4546" x2="68.0841" y2="0.410971" gradientUnits="userSpaceOnUse">
      <stop offset="0" stop-color="#000178"/>
      <stop offset="0.0304" stop-color="#020E86"/>
      <stop offset="0.1206" stop-color="#0831AB"/>
      <stop offset="0.2046" stop-color="#0C4AC6"/>
      <stop offset="0.2791" stop-color="#0E5AD6"/>
      <stop offset="0.3364" stop-color="#0F5FDC"/>
      <stop offset="0.3877" stop-color="#1267DC"/>
      <stop offset="0.4687" stop-color="#197EDB"/>
      <stop offset="0.5692" stop-color="#25A3DA"/>
      <stop offset="0.6848" stop-color="#36D6D9"/>
    </linearGradient>
  </defs>
</svg>