<svg xmlns="http://www.w3.org/2000/svg" viewBox="0 0 87.3 78">
  <path d="M6.6 66.85l3.85 6.65c.8 1.4 1.95 2.5 3.3 3.3l13.75-23.8H0a7.3 7.3 0 0 0 1 3.55z" fill="#0066da"/>
  <path d="M43.65 25L29.9 1.2a8.1 8.1 0 0 0-3.3 3.3L1 49.5a7.3 7.3 0 0 0-1 3.55h27.5z" fill="#00ac47"/>
  <path d="M73.55 76.8a8.1 8.1 0 0 0 3.3-3.3l1.6-2.75 7.65-13.25a7.3 7.3 0 0 0 1-3.55H59.6l5.85 11.2z" fill="#ea4335"/>
  <path d="M43.65 25L57.4 1.2A8.27 8.27 0 0 0 53.65 0H33.65a8.27 8.27 0 0 0-3.75 1.2z" fill="#00832d"/>
  <path d="M59.6 53.05h27.5a7.3 7.3 0 0 0-1-3.55L61.2 8.5a8.1 8.1 0 0 0-3.3-3.3L43.65 25z" fill="#2684fc"/>
  <path d="M27.5 53.05L13.75 76.85a8.27 8.27 0 0 0 3.75 1.15h52.3a8.27 8.27 0 0 0 3.75-1.15L59.6 53.05z" fill="#ffba00"/>
</svg>
