<?xml version="1.0" encoding="UTF-8"?>
<svg id="Layer_4" data-name="Layer 4" xmlns="http://www.w3.org/2000/svg" viewBox="0 0 143.96 27.46">
  <defs>
    <style>
      .cls-1 {
        fill: #231f20;
      }

      .cls-2 {
        fill: #f78e1e;
      }
    </style>
  </defs>
  <g>
    <path class="cls-1" d="M0,.34h5.88l6.8,15.08L19.43.34h5.82v19.43h-3.84l.16-16.06h-.05l-7.19,16.06h-3.48L3.73,3.72h-.05l.16,16.06H0V.34Z"/>
    <path class="cls-1" d="M30.37.02h3.76v3.05h-3.76V.02ZM30.37,5.35h3.76v14.42h-3.76V5.35Z"/>
    <path class="cls-1" d="M50,11.18c0-1.5-.19-3.32-3.54-3.32-1.31,0-3.92.73-3.92,3.89v8.03h-3.76V5.35h3.76v2.18h.05c1.22-1.55,3.13-2.56,5.69-2.56,1.69,0,4.08.3,5.09,2.67.93-1.33,2.83-2.67,5.85-2.67,2.31,0,5.74.82,5.74,5.23v9.58h-3.76v-8.6c0-1.5-.19-3.32-3.54-3.32-1.31,0-3.92.73-3.92,3.89v8.03h-3.76v-8.6Z"/>
    <path class="cls-1" d="M72.15,13.52c.08,1.61,1.17,4.08,4.9,4.08,2.48,0,3.56-.87,4.3-2.07h4.08c-.82,1.61-2.78,4.79-8.27,4.79-6.5,0-8.93-3.78-8.93-7.62,0-4.82,3.56-7.89,8.68-7.89,6.4,0,8.85,3.95,8.85,8.16v.54h-13.61ZM81.84,11.12c-.46-2.88-3.02-3.76-4.87-3.76-1.74,0-4.19.82-4.82,3.76h9.69Z"/>
    <path class="cls-1" d="M89.29,5.35h3.76v2.8h.05c1.01-1.63,2.56-3.18,5.44-3.18.57,0,1.01.05,1.5.14v3.7c-1.03-.33-1.74-.35-2.4-.35-1.91,0-4.6,1.01-4.6,4.35v6.97h-3.76V5.35Z"/>
  </g>
  <g>
    <g>
      <path class="cls-2" d="M112.42,8.92c-.91-.7-1.77.51-2.4,1.01-1.52,1.65-1.27,4.03-2.97,5.6-.54,1.44-.84,3.24-1.56,4.76-.22,1.9-.47,3.33-.71,5.23.12.64.89.73,1.43.83.26.03.46-.02.6-.24.06-1.35.82-2.86.71-4.29.85-1.51.16-3.68,1.54-5,.22-.92,1.49-2.7,1.43-4.4.39-.99.87-.85,1.67-.79-.52-1.05-.6-1.82.25-2.72Z"/>
      <path class="cls-2" d="M126.83,8.99c.18-.35.47-.67.56-1,.19-.64-.6-2-.7-2.1-.52-.56-.88-.76-1.17-1.57-.08-.21-.24-.9-.25-1.39-.04.01-2.83-1.72-5.12.5-.65.62-.88.92-.99,1.89-.07.75-.64,1.13-1.24,1.1-1.22.29-1.8.5-2.96,1.57-.51.48-.91.95-1.07,1.32-.19.43-.52,1.56.09,2.52.04,0,.07.03.2.22.12.19-.04.59-.1,1.04-.06.46-.24,3.4-.66,5.15-.99.79-1.1,2.3-.84,3.57.19.55.78.66,1.32.58.97-1.21,1.59-2.69,1.3-4.28.43-.62.18-1.11.24-1.9.16-.71.02-3.62,1.19-3.68,1.71-.32,3.5.6,5.12.11.14.14.33.58.35.46.15.4-.13,1.49.01,1.92,1.25.9.51,3.82,2.76,3.22.92-.32.75-1.43.58-2.14-.48-1.05-2.29-1.65-1.09-3.22.6-.68,1,.57,1.67.48.97,1.01,1.12,1.86,1.38,3.16.67,1,.47,2.24,1.06,4.08l.32.71c.35-.08.46,2.7.64,3.57.18.87.49,3.35,2.38,2.38,1.16-.84.34-2.37.23-3.44-.87-.64-1.56-5.57-3.1-7.62-.8-2.63-.34-3.01-.71-3.74-.28-.55-.67-.86-.78-1.22-.64-.63-1.12-1.25-.62-2.22Z"/>
      <path class="cls-2" d="M114.15,6.74c.7-.5,1.12-.62,2.02-.74-.11-.01-.27-.1-.37-.47-.31-1.19,1.13-3.75-.67-3.25-4.21,1.18-5.11,1.74-6.42,1.78-.85.02-1.64,3.42-3.81,6.08-.51.63-.21.8.24.82,1.67.21,1.92-1.52,3.21-2.25,1.25-.65,0-1.89,1.08-2.62,1.36-.35,2.51-1.21,3.92-1.43l.24.24c-1.3,2.91-.55,2.99-.55,3.07.41-.55.6-.87,1.12-1.24Z"/>
      <path class="cls-2" d="M128.34,3.47c.23-.43.94-.59,1.19-.5-.29-.75-.33-.95-.12-1.14.56-.53,7.82,3.67,7.73,4.45.4,1.97,2.57,3.21,4.16,4.05.38-.1.83.2.6-.83-.23-1.02-3.54-2.24-3.93-4.41-.68-1.71-2.78-1.27-3.21-3.1-2.28-.56-5.35-2.69-7-1.76-.5.42-.71.84-.78,1.36-.06.53,0,1.23.31,1.78.38.69.77,1.17.93,1.3-.1-.74-.09-.81.12-1.21Z"/>
      <path class="cls-2" d="M141.54,13.11c-1.26-.68-2.4-1.63-3.23-2.55-.78-1.02-1.81-1.03-2.68-2.09-.43-.91-2.31-1.6-2.86-2.06-.38-.32-.87-.91-1.25-1.15-.38-.24-1.88-.67-2.36-.08-.46.56-.45,1.04-.31,1.48.14.44.65,1.27.39,1.86-.14.32-.53.81-.72,1.16-.35.68.04,1.23.38,1.57-.07-.22,0-.76.7-1.25.45-.32.92-.43,1.22-.72.34-.32,0-1.24.36-1.39.36-.16,1.13.78,2.32,1.52,1.19.75,3.1,2.42,4.75,3.68,1.65,1.26,2.48,2.56,4.28,3.22.48.38,1.37.25,1.43-.48-.2-1.32-1.16-2.05-2.42-2.74Z"/>
    </g>
    <g>
      <path class="cls-2" d="M112.42,8.92c-.91-.7-1.77.51-2.4,1.01-1.52,1.65-1.27,4.03-2.97,5.6-.54,1.44-.84,3.24-1.56,4.76-.22,1.9-.47,3.33-.71,5.23.12.64.89.73,1.43.83.26.03.46-.02.6-.24.06-1.35.82-2.86.71-4.29.85-1.51.16-3.68,1.54-5,.22-.92,1.49-2.7,1.43-4.4.39-.99.87-.85,1.67-.79-.52-1.05-.6-1.82.25-2.72Z"/>
      <path class="cls-2" d="M126.83,8.99c.18-.35.47-.67.56-1,.19-.64-.6-2-.7-2.1-.52-.56-.88-.76-1.17-1.57-.08-.21-.24-.9-.25-1.39-.04.01-2.83-1.72-5.12.5-.65.62-.88.92-.99,1.89-.07.75-.64,1.13-1.24,1.1-1.22.29-1.8.5-2.96,1.57-.51.48-.91.95-1.07,1.32-.19.43-.52,1.56.09,2.52.04,0,.07.03.2.22.12.19-.04.59-.1,1.04-.06.46-.24,3.4-.66,5.15-.99.79-1.1,2.3-.84,3.57.19.55.78.66,1.32.58.97-1.21,1.59-2.69,1.3-4.28.43-.62.18-1.11.24-1.9.16-.71.02-3.62,1.19-3.68,1.71-.32,3.5.6,5.12.11.14.14.33.58.35.46.15.4-.13,1.49.01,1.92,1.25.9.51,3.82,2.76,3.22.92-.32.75-1.43.58-2.14-.48-1.05-2.29-1.65-1.09-3.22.6-.68,1,.57,1.67.48.97,1.01,1.12,1.86,1.38,3.16.67,1,.47,2.24,1.06,4.08l.32.71c.35-.08.46,2.7.64,3.57.18.87.49,3.35,2.38,2.38,1.16-.84.34-2.37.23-3.44-.87-.64-1.56-5.57-3.1-7.62-.8-2.63-.34-3.01-.71-3.74-.28-.55-.67-.86-.78-1.22-.64-.63-1.12-1.25-.62-2.22Z"/>
      <path class="cls-2" d="M114.15,6.74c.7-.5,1.12-.62,2.02-.74-.11-.01-.27-.1-.37-.47-.31-1.19,1.13-3.75-.67-3.25-4.21,1.18-5.11,1.74-6.42,1.78-.85.02-1.64,3.42-3.81,6.08-.51.63-.21.8.24.82,1.67.21,1.92-1.52,3.21-2.25,1.25-.65,0-1.89,1.08-2.62,1.36-.35,2.51-1.21,3.92-1.43l.24.24c-1.3,2.91-.55,2.99-.55,3.07.41-.55.6-.87,1.12-1.24Z"/>
      <path class="cls-2" d="M128.34,3.47c.23-.43.94-.59,1.19-.5-.29-.75-.33-.95-.12-1.14.56-.53,7.82,3.67,7.73,4.45.4,1.97,2.57,3.21,4.16,4.05.38-.1.83.2.6-.83-.23-1.02-3.54-2.24-3.93-4.41-.68-1.71-2.78-1.27-3.21-3.1-2.28-.56-5.35-2.69-7-1.76-.5.42-.71.84-.78,1.36-.06.53,0,1.23.31,1.78.38.69.77,1.17.93,1.3-.1-.74-.09-.81.12-1.21Z"/>
      <path class="cls-2" d="M141.54,13.11c-1.26-.68-2.4-1.63-3.23-2.55-.78-1.02-1.81-1.03-2.68-2.09-.43-.91-2.31-1.6-2.86-2.06-.38-.32-.87-.91-1.25-1.15-.38-.24-1.88-.67-2.36-.08-.46.56-.45,1.04-.31,1.48.14.44.65,1.27.39,1.86-.14.32-.53.81-.72,1.16-.35.68.04,1.23.38,1.57-.07-.22,0-.76.7-1.25.45-.32.92-.43,1.22-.72.34-.32,0-1.24.36-1.39.36-.16,1.13.78,2.32,1.52,1.19.75,3.1,2.42,4.75,3.68,1.65,1.26,2.48,2.56,4.28,3.22.48.38,1.37.25,1.43-.48-.2-1.32-1.16-2.05-2.42-2.74Z"/>
    </g>
  </g>
</svg>