<svg xmlns="http://www.w3.org/2000/svg" viewBox="0 0 22 48" fill="#C7154A">
  <path d="M20.03 46.757l-5.538-1.385A1.97 1.97 0 0 1 13 43.46v-5.462c0-.841.349-1.601.907-2.146a12.212 12.212 0 0 0 6.975-3.644c2.602-2.731 3.627-6.578 2.882-10.251L21 9h-4V4a1 1 0 0 0-2 0v7a1 1 0 0 1-2 0v-1a1 1 0 0 0-2 0v6.758a4.489 4.489 0 0 1 2.694-.755c2.278.095 4.156 1.934 4.297 4.21a4.501 4.501 0 0 1-6.992 4.029V29a1 1 0 0 1-2 0V7a1 1 0 0 0-2 0v2h-4L.237 21.957c-.745 3.675.279 7.52 2.882 10.251a12.202 12.202 0 0 0 6.975 3.644c.558.545.907 1.305.907 2.146V43.4c0 .938-.639 1.757-1.55 1.985l-5.48 1.37c-.57.143-.97.655-.97 1.243h18c0-.588-.4-1.1-.97-1.243v.002"/>
</svg>
